<?xml version="1.0" encoding="utf-8"?>
<svg id="master-artboard" viewBox="0 0 930.4443359375 803.587646484375" version="1.1" xmlns="http://www.w3.org/2000/svg" x="0px" y="0px" width="930.4443359375px" height="803.587646484375px" enable-background="new 0 0 2340 1560"><rect id="ee-background" x="0" y="0" width="930.4443359375" height="803.587646484375" style="fill: white; fill-opacity: 0; pointer-events: none;"/><defs><path id="text-path-0" d="M 1128.1361083984375 872.0660400390625 A 100 -2 0 0 0 1227.469482421875 872.0660400390625 A 100 -2 0 0 0 1128.1361083984375 872.0660400390625 Z" style="fill: none; stroke: red; stroke-width: 2;"/><style id="ee-google-fonts">@import url(https://fonts.googleapis.com/css?family=Kanit:100,100italic,200,200italic,300,300italic,400,400italic,500,500italic,600,600italic,700,700italic,800,800italic,900,900italic);</style></defs>


<g transform="matrix(1, 0, 0, 1, -677.2841186523438, -323.2187805175781)">
		<g>
			<g>
				<linearGradient id="SVGID_1_" gradientUnits="userSpaceOnUse" x1="1345.6709" y1="792.9316" x2="899.053" y2="479.0154">
					<stop offset="0" style="stop-color:#7CCAF2"/>
					<stop offset="1" style="stop-color:#2174B8"/>
				</linearGradient>
				<path fill="url(#SVGID_1_)" d="M1020.588,508.978c0-3.924-3.209-7.135-7.134-7.135h-59.25c-3.924,0-7.134,3.211-7.134,7.133&#10;&#9;&#9;&#9;&#9;&#9;v59.251c0.001,3.924,3.21,7.134,7.134,7.134l59.25-0.001c3.924,0,7.134-3.211,7.134-7.133V508.978z" style="fill: rgb(255, 255, 255);"/>
			</g>
			<g>
				<linearGradient id="SVGID_2_" gradientUnits="userSpaceOnUse" x1="1300.2607" y1="857.5107" x2="853.6587" y2="543.6056">
					<stop offset="0" style="stop-color:#7CCAF2"/>
					<stop offset="1" style="stop-color:#2174B8"/>
				</linearGradient>
				<path fill="url(#SVGID_2_)" d="M947.07,582.496c0-3.924-3.209-7.135-7.134-7.136l-25.545,0.001&#10;&#9;&#9;&#9;&#9;&#9;c-3.925-0.001-7.137,3.211-7.136,7.135v25.546c-0.001,3.924,3.21,7.135,7.136,7.135l25.545-0.001&#10;&#9;&#9;&#9;&#9;&#9;c3.925,0.001,7.134-3.209,7.134-7.134V582.496z" style="fill: rgb(255, 255, 255);"/>
			</g>
			<g>
				<linearGradient id="SVGID_3_" gradientUnits="userSpaceOnUse" x1="1354.7324" y1="780.0449" x2="908.1125" y2="466.1272">
					<stop offset="0" style="stop-color:#7CCAF2"/>
					<stop offset="1" style="stop-color:#2174B8"/>
				</linearGradient>
				<path fill="url(#SVGID_3_)" d="M947.07,452.885c0-3.924-3.209-7.134-7.134-7.134h-41.823c-3.924,0-7.135,3.21-7.135,7.133&#10;&#9;&#9;&#9;&#9;&#9;v41.825c0,3.924,3.211,7.134,7.135,7.134l41.823-0.001c3.925,0.001,7.136-3.209,7.134-7.133V452.885z" style="fill: rgb(255, 255, 255);"/>
			</g>
			<g>
				<linearGradient id="SVGID_4_" gradientUnits="userSpaceOnUse" x1="1336.4863" y1="805.9951" x2="889.8714" y2="492.0809">
					<stop offset="0" style="stop-color:#7CCAF2"/>
					<stop offset="1" style="stop-color:#2174B8"/>
				</linearGradient>
				<path fill="url(#SVGID_4_)" d="M1078.461,582.496c0-3.924-3.21-7.135-7.135-7.136l-43.604,0.001&#10;&#9;&#9;&#9;&#9;&#9;c-3.924,0-7.134,3.211-7.134,7.135v43.603c0,3.922,3.21,7.134,7.134,7.134h43.604c3.924,0,7.135-3.21,7.135-7.136V582.496z" style="fill: rgb(255, 255, 255);"/>
			</g>
			<g>
				<linearGradient id="SVGID_5_" gradientUnits="userSpaceOnUse" x1="1293.4023" y1="867.2949" x2="846.7856" y2="553.3795">
					<stop offset="0" style="stop-color:#7CCAF2"/>
					<stop offset="1" style="stop-color:#2174B8"/>
				</linearGradient>
				<path fill="url(#SVGID_5_)" d="M1020.588,640.368c0-3.924-3.21-7.135-7.134-7.135h-35.422c-3.924,0-7.134,3.21-7.133,7.135&#10;&#9;&#9;&#9;&#9;&#9;l-0.001,35.42c0,3.925,3.21,7.136,7.134,7.136h35.423c3.923,0,7.133-3.211,7.133-7.135V640.368z" style="fill: rgb(255, 255, 255);"/>
			</g>
			<g>
				<linearGradient id="SVGID_6_" gradientUnits="userSpaceOnUse" x1="1257.9287" y1="917.7471" x2="811.3257" y2="603.8412">
					<stop offset="0" style="stop-color:#7CCAF2"/>
					<stop offset="1" style="stop-color:#2174B8"/>
				</linearGradient>
				<path fill="url(#SVGID_6_)" d="M970.898,690.058c0-3.924-3.21-7.134-7.134-7.134h-24.58c-3.924,0-7.134,3.21-7.136,7.134v24.579&#10;&#9;&#9;&#9;&#9;&#9;c0.001,3.925,3.212,7.136,7.136,7.134h24.58c3.925,0.001,7.136-3.209,7.134-7.133V690.058z" style="fill: rgb(255, 255, 255);"/>
			</g>
			<g>
				<linearGradient id="SVGID_7_" gradientUnits="userSpaceOnUse" x1="1262.8184" y1="910.8135" x2="816.1986" y2="596.8959">
					<stop offset="0" style="stop-color:#7CCAF2"/>
					<stop offset="1" style="stop-color:#2174B8"/>
				</linearGradient>
				<path fill="url(#SVGID_7_)" d="M932.05,659.101c0-3.924-3.212-7.136-7.134-7.136l-16.689,0.001&#10;&#9;&#9;&#9;&#9;&#9;c-3.924-0.001-7.135,3.21-7.133,7.134v16.689c-0.001,3.924,3.209,7.134,7.133,7.133l16.689,0.001&#10;&#9;&#9;&#9;&#9;&#9;c3.924-0.001,7.133-3.21,7.134-7.134V659.101z" style="fill: rgb(255, 255, 255);"/>
			</g>
			<g>
				<linearGradient id="SVGID_8_" gradientUnits="userSpaceOnUse" x1="1329.5918" y1="815.7969" x2="882.9854" y2="501.8886">
					<stop offset="0" style="stop-color:#7CCAF2"/>
					<stop offset="1" style="stop-color:#2174B8"/>
				</linearGradient>
				<path fill="url(#SVGID_8_)" d="M1119.187,640.368c0-3.924-3.211-7.135-7.135-7.135h-26.456c-3.924,0-7.134,3.21-7.134,7.135&#10;&#9;&#9;&#9;&#9;&#9;v26.458c0,3.924,3.21,7.134,7.134,7.134h26.456c3.924,0,7.135-3.21,7.135-7.134V640.368z" style="fill: rgb(255, 255, 255);"/>
			</g>
			<g>
				<linearGradient id="SVGID_9_" gradientUnits="userSpaceOnUse" x1="1366.3525" y1="763.4932" x2="919.7487" y2="449.5868">
					<stop offset="0" style="stop-color:#7CCAF2"/>
					<stop offset="1" style="stop-color:#2174B8"/>
				</linearGradient>
				<path fill="url(#SVGID_9_)" d="M1170.237,589.315c0-3.922-3.21-7.133-7.134-7.133l-36.782-0.001&#10;&#9;&#9;&#9;&#9;&#9;c-3.924,0.001-7.134,3.21-7.134,7.134v36.782c0,3.924,3.21,7.136,7.134,7.136h36.782c3.924,0,7.134-3.212,7.134-7.134V589.315z" style="fill: rgb(255, 255, 255);"/>
			</g>
			<g>
				<linearGradient id="SVGID_10_" gradientUnits="userSpaceOnUse" x1="1300.6182" y1="857.0254" x2="854.0026" y2="543.1108">
					<stop offset="0" style="stop-color:#7CCAF2"/>
					<stop offset="1" style="stop-color:#2174B8"/>
				</linearGradient>
				<path fill="url(#SVGID_10_)" d="M1078.461,681.094c0-3.924-3.21-7.135-7.135-7.135h-17.346c-3.924,0-7.134,3.21-7.134,7.135&#10;&#9;&#9;&#9;&#9;&#9;v17.346c0,3.924,3.21,7.134,7.134,7.134h17.346c3.924,0,7.135-3.21,7.135-7.134V681.094z" style="fill: rgb(255, 255, 255);"/>
			</g>
			<g>
				<linearGradient id="SVGID_11_" gradientUnits="userSpaceOnUse" x1="1268.7441" y1="902.375" x2="822.1307" y2="588.4619">
					<stop offset="0" style="stop-color:#7CCAF2"/>
					<stop offset="1" style="stop-color:#2174B8"/>
				</linearGradient>
				<path fill="url(#SVGID_11_)" d="M1046.847,712.708c0-3.924-3.21-7.134-7.135-7.134h-33.69c-3.924,0-7.135,3.209-7.135,7.134&#10;&#9;&#9;&#9;&#9;&#9;v33.691c0,3.924,3.21,7.135,7.135,7.135h33.69c3.924-0.001,7.135-3.21,7.135-7.135V712.708z" style="fill: rgb(255, 255, 255);"/>
			</g>
		</g>
		<linearGradient id="SVGID_12_" gradientUnits="userSpaceOnUse" x1="1339.3027" y1="801.9961" x2="892.6861" y2="488.0807">
			<stop offset="0" style="stop-color:#7CCAF2"/>
			<stop offset="1" style="stop-color:#2174B8"/>
		</linearGradient>
		<path fill="url(#SVGID_12_)" d="M1341.42,550.259l-167.245-96.558c-8.834-5.102-23.293-5.102-32.127,0l-106.991,61.77&#10;&#9;&#9;&#9;l0.001,45.423h49.833c4.423,0,8.039,3.616,8.04,8.037l-0.001,49.834h11.789l0.001-43.013c-0.001-4.42,3.614-8.038,8.037-8.038&#10;&#9;&#9;&#9;h63.911c4.421,0,8.039,3.617,8.039,8.038v63.912c-0.002,4.421-3.618,8.037-8.039,8.036l-43.015,0.001v32.689&#10;&#9;&#9;&#9;c0,4.421-3.618,8.038-8.038,8.038h-32.686l-0.001,23.577c0,4.42-3.615,8.038-8.038,8.038h-23.576v39.922&#10;&#9;&#9;&#9;c0,4.42-3.616,8.039-8.036,8.039h-60.821c-4.423,0-8.041-3.619-8.039-8.039v-23.724h-25.68v34.958&#10;&#9;&#9;&#9;c0,10.203,7.229,22.723,16.063,27.825l167.245,96.558c8.834,5.102,23.293,5.102,32.127,0l167.245-96.558&#10;&#9;&#9;&#9;c8.834-5.102,16.063-17.622,16.063-27.825V578.083C1357.483,567.88,1350.254,555.36,1341.42,550.259z" style="fill: rgb(255, 255, 255);"/>
		<linearGradient id="SVGID_13_" gradientUnits="userSpaceOnUse" x1="1314.7627" y1="836.9004" x2="868.1506" y2="522.9882">
			<stop offset="0" style="stop-color:#7CCAF2"/>
			<stop offset="1" style="stop-color:#2174B8"/>
		</linearGradient>
		<path fill="url(#SVGID_13_)" d="M998.987,618.765c3.924,0,7.134-3.21,7.134-7.134l-0.001-14.667c0-3.924-3.21-7.134-7.134-7.134&#10;&#9;&#9;&#9;l-30.312,0.001c-3.924,0-7.134,3.21-7.134,7.134v14.665c0,3.924,3.21,7.135,7.134,7.135L998.987,618.765z" style="fill: rgb(255, 255, 255);"/>
	</g><linearGradient id="SVGID_14_" gradientUnits="userSpaceOnUse" x1="1181.0547" y1="679.5732" x2="1333.7329" y2="696.696">
		<stop offset="0" style="stop-color:#FFFFFF;stop-opacity:0"/>
		<stop offset="1" style="stop-color:#FFFFFF;stop-opacity:0.3"/>
	</linearGradient><path fill="url(#SVGID_14_)" d="M1216.342,504.056c-21.697-21.697-46.255-38.787-72.449-51.306&#10;&#9;&#9;c-0.639,0.296-1.256,0.61-1.845,0.951l-106.991,61.77l0.001,45.423h49.833c4.423,0,8.039,3.616,8.04,8.037l-0.001,49.834h11.789&#10;&#9;&#9;l0.001-43.013c-0.001-4.42,3.614-8.038,8.037-8.038h63.911c4.421,0,8.039,3.617,8.039,8.038v63.912&#10;&#9;&#9;c-0.002,4.421-3.618,8.037-8.039,8.036l-43.015,0.001v32.689c0,4.421-3.618,8.038-8.038,8.038h-32.686l-0.001,23.577&#10;&#9;&#9;c0,4.42-3.615,8.038-8.038,8.038h-23.576v39.922c0,4.42-3.616,8.039-8.036,8.039h-60.821c-4.423,0-8.041-3.619-8.039-8.039v-23.724&#10;&#9;&#9;h-25.68v34.958c0,10.203,7.229,22.723,16.063,27.825l167.245,96.558c8.834,5.102,23.293,5.102,32.127,0l51.126-29.518&#10;&#9;&#9;C1318.813,762.978,1315.829,603.54,1216.342,504.056z" transform="matrix(1, 0, 0, 1, -677.2841186523438, -323.2187805175781)" style="fill: rgb(244, 244, 244);"/>
<path d="M 1136.1141357421875 848.6126708984375 L 1152.1236572265625 848.7332153320312 L 1152.1002197265625 851.8431396484375 L 1140.08056640625 851.7526245117188 L 1140.0269775390625 858.8724365234375 L 1150.6966552734375 858.9527587890625 L 1150.673583984375 862.0226440429688 L 1140.00390625 861.9423217773438 L 1139.9267578125 872.1820678710938 L 1135.9368896484375 872.1520385742188 L 1136.1141357421875 848.6126708984375 ZM 1158.5931396484375 872.6634521484375 C 1157.12646484375 872.656982421875 1156.0413818359375 872.2988891601562 1155.337890625 871.589111328125 C 1154.63427734375 870.8793334960938 1154.2860107421875 869.7311401367188 1154.2930908203125 868.1444702148438 L 1154.383544921875 847.6346435546875 L 1158.3734130859375 847.6522827148438 L 1158.28466796875 867.7920532226562 C 1158.28173828125 868.4520874023438 1158.39306640625 868.9092407226562 1158.61865234375 869.16357421875 C 1158.850830078125 869.424560546875 1159.2235107421875 869.5562133789062 1159.73681640625 869.5584716796875 C 1160.323486328125 869.5610961914062 1160.8837890625 869.490234375 1161.4178466796875 869.3458862304688 L 1161.405029296875 872.23583984375 C 1160.59716796875 872.525634765625 1159.6597900390625 872.6681518554688 1158.5931396484375 872.6634521484375 ZM 1172.831298828125 872.6978149414062 C 1169.7579345703125 872.6939697265625 1167.405517578125 871.9343872070312 1165.7740478515625 870.4190063476562 C 1164.1427001953125 868.9036254882812 1163.328857421875 866.6359252929688 1163.33251953125 863.6159057617188 C 1163.336181640625 860.7625732421875 1164.0589599609375 858.5535278320312 1165.5008544921875 856.9886474609375 C 1166.94287109375 855.4171142578125 1169.0771484375 854.6331176757812 1171.90380859375 854.6366577148438 C 1174.4571533203125 854.6398315429688 1176.416259765625 855.312255859375 1177.78125 856.6539916992188 C 1179.146240234375 857.9956665039062 1179.827392578125 859.7865600585938 1179.8245849609375 862.0265502929688 L 1179.820556640625 865.2465209960938 L 1167.130615234375 865.2306518554688 C 1167.3284912109375 866.88427734375 1167.9237060546875 868.0350341796875 1168.916259765625 868.6829223632812 C 1169.9154052734375 869.330810546875 1171.4884033203125 869.6561279296875 1173.635009765625 869.6588134765625 C 1174.5150146484375 869.659912109375 1175.411865234375 869.5776977539062 1176.3253173828125 869.4121704101562 C 1177.2388916015625 869.239990234375 1178.0491943359375 869.02099609375 1178.7562255859375 868.7551879882812 L 1178.7525634765625 871.6752319335938 C 1177.211669921875 872.3599243164062 1175.2379150390625 872.7008056640625 1172.831298828125 872.6978149414062 M 1176.3138427734375 862.6421508789062 L 1176.3153076171875 861.442138671875 C 1176.31689453125 860.1954956054688 1175.97802734375 859.2484130859375 1175.298828125 858.6008911132812 C 1174.613037109375 857.9600219726562 1173.5167236328125 857.638671875 1172.010009765625 857.6367797851562 C 1170.203369140625 857.634521484375 1168.9395751953125 858.0195922851562 1168.2186279296875 858.7920532226562 C 1167.4976806640625 859.5711059570312 1167.135986328125 860.8507080078125 1167.1337890625 862.6306762695312 L 1176.3138427734375 862.6421508789062 ZM 1193.8922119140625 872.6744995117188 C 1190.8455810546875 872.6832885742188 1188.5400390625 871.919921875 1186.9755859375 870.3843994140625 C 1185.4111328125 868.8555908203125 1184.6246337890625 866.6178588867188 1184.6162109375 863.6712036132812 C 1184.6075439453125 860.6978759765625 1185.4410400390625 858.4454345703125 1187.11669921875 856.9139404296875 C 1188.7989501953125 855.3890991210938 1191.1134033203125 854.6224365234375 1194.06005859375 854.6138916015625 C 1195.2266845703125 854.6105346679688 1196.2203369140625 854.6910400390625 1197.040771484375 854.8552856445312 C 1197.8546142578125 855.0263061523438 1198.652099609375 855.2940063476562 1199.43310546875 855.6583862304688 L 1199.441650390625 858.618408203125 C 1198.1732177734375 857.9887084960938 1196.638916015625 857.676513671875 1194.8389892578125 857.6817016601562 C 1192.765625 857.6876831054688 1191.213623046875 858.1554565429688 1190.1829833984375 859.0851440429688 C 1189.1456298828125 860.0147705078125 1188.6300048828125 861.5396118164062 1188.6361083984375 863.6596069335938 C 1188.6422119140625 865.7529296875 1189.1298828125 867.2748413085938 1190.099365234375 868.2254028320312 C 1191.06201171875 869.1693115234375 1192.626708984375 869.6381225585938 1194.79345703125 869.6318359375 C 1196.5267333984375 869.6268310546875 1198.09912109375 869.2922973632812 1199.510498046875 868.6282348632812 L 1199.519287109375 871.668212890625 C 1197.91455078125 872.3328857421875 1196.038818359375 872.6682739257812 1193.8922119140625 872.6744995117188 ZM 1204.015625 847.626953125 L 1208.0054931640625 847.5979614257812 L 1208.109130859375 861.8576049804688 L 1215.328369140625 854.85498046875 L 1219.8983154296875 854.82177734375 L 1212.8992919921875 861.86279296875 L 1220.4241943359375 872.1483764648438 L 1216.2242431640625 872.1788940429688 L 1210.4246826171875 864.0008544921875 L 1208.140625 866.2074584960938 L 1208.1844482421875 872.2373046875 L 1204.194580078125 872.2662963867188 L 1204.015625 847.626953125 Z" transform="matrix(4.255352973937988, 0, 0, 4.255352973937988, -4533.9287109375, -3018.8994140625)" style="fill: rgb(244, 244, 244); white-space: pre; color: rgb(51, 51, 51);"/></svg>